HIERARCHY
ROOT mixamorig:Hips
{
	OFFSET -0.000008 104.274872 1.554316
	CHANNELS 6 Xposition Yposition Zposition Xrotation Yrotation Zrotation
	JOINT mixamorig:Spine
	{
		OFFSET -0.000005 10.181595 0.131519
		CHANNELS 6 Xposition Yposition Zposition Xrotation Yrotation Zrotation
		JOINT mixamorig:Spine1
		{
			OFFSET -0.000000 9.893959 -1.470707
			CHANNELS 6 Xposition Yposition Zposition Xrotation Yrotation Zrotation
			JOINT mixamorig:Spine2
			{
				OFFSET -0.000000 9.220757 -1.370641
				CHANNELS 6 Xposition Yposition Zposition Xrotation Yrotation Zrotation
				JOINT mixamorig:Neck
				{
					OFFSET 0.000001 16.740417 -2.049036
					CHANNELS 6 Xposition Yposition Zposition Xrotation Yrotation Zrotation
					JOINT mixamorig:Head
					{
						OFFSET 0.000000 9.617874 1.685006
						CHANNELS 6 Xposition Yposition Zposition Xrotation Yrotation Zrotation
						JOINT mixamorig:HeadTop_End
						{
							OFFSET 0.000002 22.037354 7.501101
							CHANNELS 6 Xposition Yposition Zposition Xrotation Yrotation Zrotation
							End Site
							{
								OFFSET 0.000168 2310.654297 -282.823242
							}
						}
					}
				}
				JOINT mixamorig:RightShoulder
				{
					OFFSET -4.569970 11.014908 -2.160885
					CHANNELS 6 Xposition Yposition Zposition Xrotation Yrotation Zrotation
					JOINT mixamorig:RightArm
					{
						OFFSET -10.592851 -0.524811 -2.232101
						CHANNELS 6 Xposition Yposition Zposition Xrotation Yrotation Zrotation
						JOINT mixamorig:RightForeArm
						{
							OFFSET -27.841511 0.000031 -0.000004
							CHANNELS 6 Xposition Yposition Zposition Xrotation Yrotation Zrotation
							JOINT mixamorig:RightHand
							{
								OFFSET -28.328831 -0.000015 0.000015
								CHANNELS 6 Xposition Yposition Zposition Xrotation Yrotation Zrotation
								JOINT mixamorig:RightHandThumb1
								{
									OFFSET -2.464806 -1.573990 2.681852
									CHANNELS 6 Xposition Yposition Zposition Xrotation Yrotation Zrotation
									JOINT mixamorig:RightHandThumb2
									{
										OFFSET -3.215179 -1.872803 1.924282
										CHANNELS 6 Xposition Yposition Zposition Xrotation Yrotation Zrotation
										JOINT mixamorig:RightHandThumb3
										{
											OFFSET -2.654831 -1.527969 1.512609
											CHANNELS 6 Xposition Yposition Zposition Xrotation Yrotation Zrotation
											JOINT mixamorig:RightHandThumb4
											{
												OFFSET -2.018814 -1.152008 1.108052
												CHANNELS 6 Xposition Yposition Zposition Xrotation Yrotation Zrotation
												End Site
												{
													OFFSET -188.809540 -114.533607 132.431396
												}
											}
										}
									}
								}
								JOINT mixamorig:RightHandIndex1
								{
									OFFSET -9.108284 -0.517868 2.259835
									CHANNELS 6 Xposition Yposition Zposition Xrotation Yrotation Zrotation
									JOINT mixamorig:RightHandIndex2
									{
										OFFSET -3.699989 0.000000 0.001215
										CHANNELS 6 Xposition Yposition Zposition Xrotation Yrotation Zrotation
										JOINT mixamorig:RightHandIndex3
										{
											OFFSET -2.850006 0.000031 -0.000522
											CHANNELS 6 Xposition Yposition Zposition Xrotation Yrotation Zrotation
											JOINT mixamorig:RightHandIndex4
											{
												OFFSET -2.772186 -0.000015 -0.000020
												CHANNELS 6 Xposition Yposition Zposition Xrotation Yrotation Zrotation
												End Site
												{
													OFFSET -277.218445 0.000000 -0.050231
												}
											}
										}
									}
								}
								JOINT mixamorig:RightHandMiddle1
								{
									OFFSET -9.532516 -0.000031 -0.000023
									CHANNELS 6 Xposition Yposition Zposition Xrotation Yrotation Zrotation
									JOINT mixamorig:RightHandMiddle2
									{
										OFFSET -3.700005 -0.000015 0.003713
										CHANNELS 6 Xposition Yposition Zposition Xrotation Yrotation Zrotation
										JOINT mixamorig:RightHandMiddle3
										{
											OFFSET -2.949974 0.000015 -0.002054
											CHANNELS 6 Xposition Yposition Zposition Xrotation Yrotation Zrotation
											JOINT mixamorig:RightHandMiddle4
											{
												OFFSET -2.946640 0.000000 -0.000156
												CHANNELS 6 Xposition Yposition Zposition Xrotation Yrotation Zrotation
												End Site
												{
													OFFSET -294.664337 0.000000 -0.113670
												}
											}
										}
									}
								}
								JOINT mixamorig:RightHandRing1
								{
									OFFSET -9.103600 -0.043076 -1.865134
									CHANNELS 6 Xposition Yposition Zposition Xrotation Yrotation Zrotation
									JOINT mixamorig:RightHandRing2
									{
										OFFSET -3.379288 0.000000 -0.001055
										CHANNELS 6 Xposition Yposition Zposition Xrotation Yrotation Zrotation
										JOINT mixamorig:RightHandRing3
										{
											OFFSET -2.889687 -0.000015 0.000379
											CHANNELS 6 Xposition Yposition Zposition Xrotation Yrotation Zrotation
											JOINT mixamorig:RightHandRing4
											{
												OFFSET -2.638809 -0.000015 0.000941
												CHANNELS 6 Xposition Yposition Zposition Xrotation Yrotation Zrotation
												End Site
												{
													OFFSET -263.880371 0.000000 0.516020
												}
											}
										}
									}
								}
								JOINT mixamorig:RightHandPinky1
								{
									OFFSET -8.076683 -0.486710 -3.806280
									CHANNELS 6 Xposition Yposition Zposition Xrotation Yrotation Zrotation
									JOINT mixamorig:RightHandPinky2
									{
										OFFSET -3.600014 -0.000015 -0.003747
										CHANNELS 6 Xposition Yposition Zposition Xrotation Yrotation Zrotation
										JOINT mixamorig:RightHandPinky3
										{
											OFFSET -2.099983 0.000000 -0.005739
											CHANNELS 6 Xposition Yposition Zposition Xrotation Yrotation Zrotation
											JOINT mixamorig:RightHandPinky4
											{
												OFFSET -2.115768 -0.000031 -0.003680
												CHANNELS 6 Xposition Yposition Zposition Xrotation Yrotation Zrotation
												End Site
												{
													OFFSET -211.577087 0.000000 -0.350686
												}
											}
										}
									}
								}
							}
						}
					}
				}
				JOINT mixamorig:LeftShoulder
				{
					OFFSET 4.570447 11.014725 -2.160855
					CHANNELS 6 Xposition Yposition Zposition Xrotation Yrotation Zrotation
					JOINT mixamorig:LeftArm
					{
						OFFSET 10.592371 -0.524597 -2.232119
						CHANNELS 6 Xposition Yposition Zposition Xrotation Yrotation Zrotation
						JOINT mixamorig:LeftForeArm
						{
							OFFSET 27.841532 -0.000031 0.000026
							CHANNELS 6 Xposition Yposition Zposition Xrotation Yrotation Zrotation
							JOINT mixamorig:LeftHand
							{
								OFFSET 28.328846 -0.000061 0.000022
								CHANNELS 6 Xposition Yposition Zposition Xrotation Yrotation Zrotation
								JOINT mixamorig:LeftHandThumb1
								{
									OFFSET 2.466141 -1.576172 2.681732
									CHANNELS 6 Xposition Yposition Zposition Xrotation Yrotation Zrotation
									JOINT mixamorig:LeftHandThumb2
									{
										OFFSET 3.217812 -1.872070 1.916482
										CHANNELS 6 Xposition Yposition Zposition Xrotation Yrotation Zrotation
										JOINT mixamorig:LeftHandThumb3
										{
											OFFSET 2.656029 -1.528778 1.514513
											CHANNELS 6 Xposition Yposition Zposition Xrotation Yrotation Zrotation
											JOINT mixamorig:LeftHandThumb4
											{
												OFFSET 2.020889 -1.154053 1.115139
												CHANNELS 6 Xposition Yposition Zposition Xrotation Yrotation Zrotation
												End Site
												{
													OFFSET 190.885437 -115.081749 130.048782
												}
											}
										}
									}
								}
								JOINT mixamorig:LeftHandIndex1
								{
									OFFSET 9.109314 -0.518021 2.259871
									CHANNELS 6 Xposition Yposition Zposition Xrotation Yrotation Zrotation
									JOINT mixamorig:LeftHandIndex2
									{
										OFFSET 3.699989 0.000000 -0.000322
										CHANNELS 6 Xposition Yposition Zposition Xrotation Yrotation Zrotation
										JOINT mixamorig:LeftHandIndex3
										{
											OFFSET 2.850006 0.000000 0.000352
											CHANNELS 6 Xposition Yposition Zposition Xrotation Yrotation Zrotation
											JOINT mixamorig:LeftHandIndex4
											{
												OFFSET 2.774864 -0.000031 -0.000027
												CHANNELS 6 Xposition Yposition Zposition Xrotation Yrotation Zrotation
												End Site
												{
													OFFSET 277.486267 0.000000 -0.009857
												}
											}
										}
									}
								}
								JOINT mixamorig:LeftHandMiddle1
								{
									OFFSET 9.533394 0.000061 0.000044
									CHANNELS 6 Xposition Yposition Zposition Xrotation Yrotation Zrotation
									JOINT mixamorig:LeftHandMiddle2
									{
										OFFSET 3.699989 -0.000015 -0.000231
										CHANNELS 6 Xposition Yposition Zposition Xrotation Yrotation Zrotation
										JOINT mixamorig:LeftHandMiddle3
										{
											OFFSET 2.949997 -0.000015 -0.000059
											CHANNELS 6 Xposition Yposition Zposition Xrotation Yrotation Zrotation
											JOINT mixamorig:LeftHandMiddle4
											{
												OFFSET 2.952896 0.000031 0.000063
												CHANNELS 6 Xposition Yposition Zposition Xrotation Yrotation Zrotation
												End Site
												{
													OFFSET 295.289337 0.000000 0.022810
												}
											}
										}
									}
								}
								JOINT mixamorig:LeftHandRing1
								{
									OFFSET 9.104523 -0.042999 -1.865074
									CHANNELS 6 Xposition Yposition Zposition Xrotation Yrotation Zrotation
									JOINT mixamorig:LeftHandRing2
									{
										OFFSET 3.150009 -0.000031 0.000043
										CHANNELS 6 Xposition Yposition Zposition Xrotation Yrotation Zrotation
										JOINT mixamorig:LeftHandRing3
										{
											OFFSET 2.949982 -0.000015 0.000040
											CHANNELS 6 Xposition Yposition Zposition Xrotation Yrotation Zrotation
											JOINT mixamorig:LeftHandRing4
											{
												OFFSET 2.644348 0.000000 0.000057
												CHANNELS 6 Xposition Yposition Zposition Xrotation Yrotation Zrotation
												End Site
												{
													OFFSET 264.434631 0.000000 0.012105
												}
											}
										}
									}
								}
								JOINT mixamorig:LeftHandPinky1
								{
									OFFSET 8.077789 -0.486847 -3.806259
									CHANNELS 6 Xposition Yposition Zposition Xrotation Yrotation Zrotation
									JOINT mixamorig:LeftHandPinky2
									{
										OFFSET 3.599953 0.000031 0.014727
										CHANNELS 6 Xposition Yposition Zposition Xrotation Yrotation Zrotation
										JOINT mixamorig:LeftHandPinky3
										{
											OFFSET 2.100021 0.000015 0.007705
											CHANNELS 6 Xposition Yposition Zposition Xrotation Yrotation Zrotation
											JOINT mixamorig:LeftHandPinky4
											{
												OFFSET 2.125504 0.000031 0.007517
												CHANNELS 6 Xposition Yposition Zposition Xrotation Yrotation Zrotation
												End Site
												{
													OFFSET 212.550781 0.000000 0.625752
												}
											}
										}
									}
								}
							}
						}
					}
				}
			}
		}
	}
	JOINT mixamorig:RightUpLeg
	{
		OFFSET -8.207787 -6.751648 -1.599560
		CHANNELS 6 Xposition Yposition Zposition Xrotation Yrotation Zrotation
		JOINT mixamorig:RightLeg
		{
			OFFSET -0.000002 -44.370117 0.345942
			CHANNELS 6 Xposition Yposition Zposition Xrotation Yrotation Zrotation
			JOINT mixamorig:RightFoot
			{
				OFFSET 0.000003 -44.423679 -3.043532
				CHANNELS 6 Xposition Yposition Zposition Xrotation Yrotation Zrotation
				JOINT mixamorig:RightToeBase
				{
					OFFSET -0.000002 -8.728671 10.710558
					CHANNELS 6 Xposition Yposition Zposition Xrotation Yrotation Zrotation
					JOINT mixamorig:RightToe_End
					{
						OFFSET -0.000001 -0.000679 9.278119
						CHANNELS 6 Xposition Yposition Zposition Xrotation Yrotation Zrotation
						End Site
						{
							OFFSET 0.000000 -0.067690 927.812134
						}
					}
				}
			}
		}
	}
	JOINT mixamorig:LeftUpLeg
	{
		OFFSET 8.207793 -6.751686 -1.599556
		CHANNELS 6 Xposition Yposition Zposition Xrotation Yrotation Zrotation
		JOINT mixamorig:LeftLeg
		{
			OFFSET -0.000004 -44.370014 0.346954
			CHANNELS 6 Xposition Yposition Zposition Xrotation Yrotation Zrotation
			JOINT mixamorig:LeftFoot
			{
				OFFSET -0.000001 -44.423672 -3.044401
				CHANNELS 6 Xposition Yposition Zposition Xrotation Yrotation Zrotation
				JOINT mixamorig:LeftToeBase
				{
					OFFSET -0.000002 -8.728669 10.710558
					CHANNELS 6 Xposition Yposition Zposition Xrotation Yrotation Zrotation
					JOINT mixamorig:LeftToe_End
					{
						OFFSET -0.000003 -0.000679 9.278133
						CHANNELS 6 Xposition Yposition Zposition Xrotation Yrotation Zrotation
						End Site
						{
							OFFSET 0.000000 -0.068021 927.813477
						}
					}
				}
			}
		}
	}
}
MOTION
Frames: 3
Frame Time: 0.033333
0.000006 104.270477 1.554256 0.000010 0.000003 -0.000113 -0.000005 10.181587 0.131522 0.000001 -0.000003 0.000084 -0.000000 9.893967 -1.470711 0.000001 0.000000 -0.000000 -0.000000 9.220802 -1.370642 0.000000 -0.000000 -0.000000 0.000001 16.740433 -2.049030 0.000000 -0.000000 -0.000000 0.000000 9.617859 1.685014 0.000000 0.000000 0.000000 0.000002 22.037384 7.501101 0.000000 -0.000000 0.000000 -4.569968 11.014880 -2.160881 0.000008 0.000001 -0.000038 -10.592875 -0.524773 -2.231910 75.547104 30.081161 -23.525583 -27.841530 -0.000003 0.000575 -54.968608 106.785766 70.006543 -28.328812 0.000018 0.000023 -0.000318 -0.000043 0.000006 -2.464409 -1.573837 2.682356 -41.080371 -158.796489 5.755707 -3.215261 -1.872525 1.924643 152.497251 33.643616 19.311609 -2.654934 -1.527889 1.513092 148.976056 26.080804 -41.078055 -2.018827 -1.151995 1.108065 -0.000002 0.000000 0.000005 -9.108379 -0.517571 2.260158 106.194046 17.040665 -22.628217 -3.700053 0.000304 0.001547 101.404479 15.488233 -18.838792 -2.850089 0.000367 -0.000239 98.987343 12.508742 -14.620051 -2.772150 -0.000001 -0.000017 -0.000001 -0.000001 0.000001 -9.532585 0.000280 0.000250 97.218795 15.005275 -17.157375 -3.700078 0.000319 0.003979 94.814787 13.213080 -14.257152 -2.950049 0.000321 -0.001818 93.136077 11.912583 -12.570385 -2.946626 -0.000015 -0.000153 -0.000001 0.000002 0.000000 -9.103689 -0.042758 -1.864859 93.497435 16.941239 -17.944048 -3.379346 0.000320 -0.000795 93.309407 10.443484 -11.079604 -2.889760 0.000345 0.000637 95.471749 7.077468 -7.835926 -2.638809 -0.000001 0.000941 0.000000 -0.000002 0.000000 -8.076754 -0.486383 -3.806028 88.264369 16.966292 -16.320921 -3.600029 0.000280 -0.003530 89.114441 7.468843 -7.009491 -2.100000 0.000323 -0.005527 88.647133 3.738468 -3.442949 -2.115780 -0.000042 -0.003680 0.000000 0.000001 -0.000005 4.570446 11.014691 -2.160851 -0.000018 0.000010 -0.000021 10.592408 -0.524469 -2.232357 74.402876 -15.701422 11.950403 27.841825 0.000091 -0.000217 100.417250 -69.507994 79.589633 28.328823 -0.000028 0.000026 0.000024 -0.000089 0.000000 2.466232 -1.576080 2.681845 -2.534300 167.100797 -87.034874 3.217837 -1.871805 1.916397 162.639017 -25.234808 28.382161 2.656112 -1.528651 1.514472 139.840091 -27.529315 53.959792 2.020890 -1.154065 1.115139 0.000001 0.000003 0.000006 9.109352 -0.517899 2.259739 73.712303 -19.132456 14.390901 3.700038 0.000097 -0.000439 70.211421 -17.902015 12.649148 2.850067 0.000127 0.000212 65.138811 -14.351570 9.194986 2.774875 -0.000033 -0.000029 -0.000000 -0.000002 -0.000001 9.533448 0.000155 -0.000083 70.453422 -17.691402 12.535631 3.700047 0.000122 -0.000365 72.828606 -16.052229 11.874166 2.950060 0.000112 -0.000191 71.195508 -18.315905 13.168671 2.952853 -0.000001 0.000061 0.000002 0.000001 0.000002 9.104563 -0.042906 -1.865204 68.629440 -16.306173 11.171055 3.150057 0.000154 -0.000088 74.039210 -14.701695 11.114103 2.950024 0.000127 -0.000072 73.343282 -15.795395 11.795995 2.644319 0.000047 0.000056 -0.000001 -0.000001 -0.000000 8.077815 -0.486775 -3.806403 57.843294 -16.692897 9.611088 3.600003 0.000102 0.014582 58.147033 -14.686812 8.497312 2.100053 0.000110 0.007569 59.750946 -13.728766 8.205133 2.125504 -0.000015 0.007509 0.000002 -0.000001 0.000000 -8.207786 -6.751667 -1.599560 -0.077001 -0.000003 0.000080 -0.000002 -44.370110 0.345938 0.153719 -0.000000 -0.000000 0.000000 -44.423679 -3.043532 -0.076700 0.000000 -0.000002 -0.000006 -8.728667 10.710559 -0.000009 -0.000000 -0.000000 -0.000001 -0.000679 9.278123 0.000000 -0.000000 -0.000000 8.207792 -6.751710 -1.599556 -0.074518 -0.000003 0.000081 -0.000002 -44.370014 0.346960 0.148822 0.000002 0.000000 -0.000001 -44.423664 -3.044403 -0.074314 0.000000 -0.000002 -0.000004 -8.728671 10.710558 0.000007 -0.000000 -0.000000 0.000000 -0.000680 9.278137 -0.000000 0.000000 -0.000001 
0.000006 104.270477 1.554256 0.000010 0.000003 -0.000113 -0.000005 10.181587 0.131522 0.000001 -0.000003 0.000084 -0.000000 9.893967 -1.470711 0.000001 0.000000 -0.000000 -0.000000 9.220802 -1.370642 0.000000 -0.000000 -0.000000 0.000001 16.740433 -2.049030 0.000000 -0.000000 -0.000000 0.000000 9.617859 1.685014 0.000000 0.000000 0.000000 0.000002 22.037384 7.501101 0.000000 -0.000000 0.000000 -4.569968 11.014880 -2.160881 0.000008 0.000001 -0.000038 -10.592879 -0.524740 -2.231928 75.590612 24.012476 -18.731657 -27.841520 0.000013 0.000549 -52.899112 106.726958 67.562585 -28.328821 0.000021 0.000023 -0.000320 -0.000046 0.000007 -2.464433 -1.573741 2.682310 -50.744108 -166.132904 -17.582381 -3.215261 -1.872530 1.924620 148.527695 32.287691 16.156480 -2.654957 -1.527882 1.513053 145.745664 28.011842 -27.056382 -2.018823 -1.151999 1.108057 -0.000001 0.000001 0.000004 -9.108389 -0.517531 2.260142 104.618889 14.318202 -18.526424 -3.700060 0.000313 0.001535 100.687199 12.924860 -15.534067 -2.850093 0.000366 -0.000240 100.086710 11.098536 -13.228446 -2.772147 -0.000015 -0.000019 -0.000001 0.000002 -0.000000 -9.532595 0.000281 0.000230 94.540378 14.359083 -15.681880 -3.700077 0.000330 0.003983 94.016133 12.961263 -13.791906 -2.950065 0.000335 -0.001794 97.092478 12.315070 -13.919163 -2.946628 0.000000 -0.000153 0.000004 -0.000001 -0.000002 -9.103709 -0.042753 -1.864883 90.368061 17.178081 -17.242172 -3.379330 0.000323 -0.000811 91.425203 9.873521 -10.138774 -2.889751 0.000360 0.000653 98.714675 7.287761 -8.539184 -2.638816 -0.000028 0.000944 0.000000 0.000000 -0.000000 -8.076754 -0.486392 -3.806035 84.688834 18.291624 -16.554531 -3.600023 0.000291 -0.003538 87.552520 7.753443 -7.092795 -2.100023 0.000331 -0.005481 91.869910 4.283803 -4.203635 -2.115760 -0.000055 -0.003688 0.000003 -0.000000 -0.000000 4.570446 11.014691 -2.160851 -0.000018 0.000010 -0.000021 10.592378 -0.524494 -2.232326 74.336999 -3.814194 2.892375 27.841829 0.000082 -0.000228 102.134756 -70.840728 82.719677 28.328854 -0.000029 0.000024 0.000017 -0.000089 0.000001 2.466250 -1.576021 2.681815 3.447016 174.419317 -103.974344 3.217878 -1.871838 1.916420 165.197223 -21.398822 41.155479 2.656116 -1.528705 1.514501 140.387394 -26.811810 64.711903 2.020895 -1.154083 1.115141 -0.000002 0.000006 0.000004 9.109389 -0.517894 2.259754 72.084983 -21.886605 16.007984 3.700051 0.000117 -0.000448 71.540337 -15.691854 11.351734 2.850040 0.000159 0.000214 70.834669 -12.253480 8.729174 2.774888 -0.000029 -0.000025 0.000002 0.000002 0.000003 9.533464 0.000167 -0.000067 69.800312 -19.083456 13.369693 3.700060 0.000136 -0.000379 72.765557 -12.527661 9.245191 2.950035 0.000130 -0.000190 71.873930 -12.512679 9.089258 2.952862 -0.000017 0.000068 -0.000002 0.000002 0.000001 9.104593 -0.042892 -1.865200 68.758811 -19.018696 13.077506 3.150038 0.000160 -0.000095 73.283914 -12.445423 9.274583 2.949991 0.000144 -0.000092 73.406297 -10.411031 7.771830 2.644325 0.000016 0.000057 -0.000003 -0.000001 -0.000000 8.077832 -0.486773 -3.806369 59.482642 -19.470807 11.561649 3.599993 0.000101 0.014582 57.654754 -14.684487 8.410938 2.100034 0.000118 0.007563 59.133708 -11.101181 6.590498 2.125493 -0.000026 0.007518 -0.000000 0.000000 0.000001 -8.207786 -6.751667 -1.599560 -0.077001 -0.000003 0.000080 -0.000002 -44.370110 0.345938 0.153719 -0.000000 -0.000000 0.000000 -44.423679 -3.043532 -0.076700 0.000000 -0.000002 -0.000006 -8.728667 10.710559 -0.000009 -0.000000 -0.000000 -0.000001 -0.000679 9.278123 0.000000 -0.000000 -0.000000 8.207792 -6.751710 -1.599556 -0.074518 -0.000003 0.000081 -0.000002 -44.370014 0.346960 0.148822 0.000002 0.000000 -0.000001 -44.423664 -3.044403 -0.074314 0.000000 -0.000002 -0.000004 -8.728671 10.710558 0.000007 -0.000000 -0.000000 0.000000 -0.000680 9.278137 -0.000000 0.000000 -0.000001 
0.000006 104.270477 1.554256 0.000010 0.000003 -0.000113 -0.000005 10.181587 0.131522 0.000001 -0.000003 0.000084 -0.000000 9.893967 -1.470711 0.000001 0.000000 -0.000000 -0.000000 9.220802 -1.370642 0.000000 -0.000000 -0.000000 0.000001 16.740433 -2.049030 0.000000 -0.000000 -0.000000 0.000000 9.617859 1.685014 0.000000 0.000000 0.000000 0.000002 22.037384 7.501101 0.000000 -0.000000 0.000000 -4.569968 11.014880 -2.160881 0.000008 0.000001 -0.000038 -10.592869 -0.524765 -2.231897 74.906487 31.119319 -24.081358 -27.841515 0.000013 0.000555 -50.751191 105.211503 63.639570 -28.328815 0.000021 0.000031 -0.000320 -0.000040 0.000004 -2.464411 -1.573754 2.682309 -50.536180 -165.351257 -16.952582 -3.215258 -1.872560 1.924631 148.233519 31.831349 12.809977 -2.654962 -1.527867 1.513044 144.382290 28.278964 -25.511631 -2.018831 -1.151999 1.108061 -0.000004 -0.000002 0.000004 -9.108371 -0.517554 2.260131 103.589101 13.346968 -16.968311 -3.700088 0.000320 0.001535 99.861054 11.711556 -13.875647 -2.850095 0.000370 -0.000240 99.489294 10.130013 -11.950450 -2.772170 -0.000015 -0.000019 -0.000000 -0.000001 -0.000001 -9.532584 0.000290 0.000244 94.881074 13.150974 -14.460537 -3.700064 0.000335 0.003969 94.009692 12.247667 -13.027175 -2.950052 0.000335 -0.001779 96.788288 11.996312 -13.487786 -2.946616 0.000001 -0.000154 -0.000003 0.000002 -0.000000 -9.103704 -0.042765 -1.864876 91.673098 15.985945 -16.407885 -3.379330 0.000325 -0.000816 91.116602 10.376417 -10.597330 -2.889740 0.000344 0.000658 98.407631 8.067737 -9.396085 -2.638813 -0.000031 0.000941 -0.000004 -0.000000 -0.000002 -8.076759 -0.486403 -3.806034 86.112730 17.291768 -16.030778 -3.600070 0.000274 -0.003537 85.955950 8.372318 -7.472277 -2.100026 0.000318 -0.005495 89.954466 5.102621 -4.881082 -2.115777 -0.000052 -0.003680 0.000006 -0.000001 -0.000003 4.570446 11.014691 -2.160851 -0.000018 0.000010 -0.000021 10.592402 -0.524472 -2.232371 73.861905 -13.771055 10.373042 27.841824 0.000068 -0.000217 103.222559 -73.059883 86.152092 28.328840 -0.000029 0.000019 0.000023 -0.000088 -0.000000 2.466267 -1.575985 2.681791 8.868562 181.010368 -118.575813 3.217890 -1.871866 1.916424 165.216621 -19.640783 47.189873 2.656126 -1.528687 1.514508 140.474534 -26.738874 65.365696 2.020883 -1.154057 1.115153 0.000005 -0.000000 0.000003 9.109373 -0.517907 2.259736 73.061352 -22.221319 16.544730 3.700059 0.000122 -0.000448 72.263845 -15.668293 11.485177 2.850040 0.000160 0.000198 72.137296 -12.146959 8.862158 2.774864 -0.000044 -0.000029 0.000003 -0.000002 0.000000 9.533450 0.000158 -0.000084 70.529223 -19.662132 13.965095 3.700034 0.000130 -0.000379 73.237291 -12.666883 9.428806 2.950049 0.000136 -0.000200 72.765557 -12.531145 9.251980 2.952860 -0.000032 0.000067 -0.000001 -0.000002 -0.000001 9.104583 -0.042908 -1.865214 69.725276 -19.639353 13.752182 3.150040 0.000137 -0.000086 73.950513 -13.188163 9.949477 2.949987 0.000145 -0.000089 74.281524 -10.974686 8.324551 2.644309 0.000014 0.000055 -0.000000 0.000002 0.000000 8.077836 -0.486781 -3.806402 60.113854 -20.156889 12.116232 3.599986 0.000105 0.014582 58.194059 -15.901514 9.194791 2.100025 0.000112 0.007553 59.803046 -12.120056 7.274120 2.125508 -0.000006 0.007511 -0.000002 0.000002 0.000001 -8.207786 -6.751667 -1.599560 -0.077001 -0.000003 0.000080 -0.000002 -44.370110 0.345938 0.153719 -0.000000 -0.000000 0.000000 -44.423679 -3.043532 -0.076700 0.000000 -0.000002 -0.000006 -8.728667 10.710559 -0.000009 -0.000000 -0.000000 -0.000001 -0.000679 9.278123 0.000000 -0.000000 -0.000000 8.207792 -6.751710 -1.599556 -0.074518 -0.000003 0.000081 -0.000002 -44.370014 0.346960 0.148822 0.000002 0.000000 -0.000001 -44.423664 -3.044403 -0.074314 0.000000 -0.000002 -0.000004 -8.728671 10.710558 0.000007 -0.000000 -0.000000 0.000000 -0.000680 9.278137 -0.000000 0.000000 -0.000001 
